<svg xmlns="http://www.w3.org/2000/svg" width="1024" height="1024" viewBox="0 0 1024 1024">
<g>
<path d="M 390.00 499.92 C385.88,501.21 381.86,502.51 381.09,502.80 C378.21,503.89 381.22,500.98 390.27,493.91 C395.35,489.94 398.15,488.15 396.50,489.93 L 393.50 493.16 L 395.89 495.10 C397.21,496.17 398.11,497.17 397.89,497.32 C397.68,497.46 394.12,498.64 390.00,499.92 ZM 324.24 529.00 C322.15,533.12 319.94,537.85 319.33,539.50 C318.44,541.89 318.23,538.92 318.31,525.00 C318.37,515.38 318.56,511.64 318.74,516.69 C319.04,525.09 319.26,525.95 321.23,526.57 C322.87,527.09 323.94,526.57 325.71,524.38 C327.36,522.34 326.93,523.68 324.24,529.00 Z" fill="rgb(245,156,89)"/>
<path d="M 368.85 790.60 C364.70,792.41 360.63,792.51 280.50,792.66 C234.30,792.74 194.63,792.44 192.34,791.97 C186.97,790.89 180.82,787.70 179.32,785.22 C178.68,784.14 177.65,781.43 177.05,779.18 C176.10,775.64 176.24,774.47 178.09,770.52 C180.84,764.67 183.31,762.80 193.33,758.93 C205.13,754.39 207.95,752.73 213.15,747.33 C218.87,741.40 222.40,734.68 224.63,725.50 C226.21,719.01 226.32,704.67 226.06,528.50 C225.75,315.56 225.20,273.98 222.60,267.01 C219.63,259.08 213.12,254.16 200.94,250.65 C190.42,247.63 185.00,242.00 184.69,233.78 C184.44,227.41 187.94,222.39 194.91,219.12 L 200.50 216.50 L 268.11 216.18 C356.04,215.77 361.56,216.29 366.72,225.50 C369.46,230.38 369.57,235.15 367.06,240.67 C364.72,245.83 362.21,247.51 351.44,251.13 C338.95,255.33 335.43,257.40 332.60,262.25 C331.92,263.40 331.33,264.37 330.81,265.38 C327.00,272.75 327.00,282.09 327.00,377.52 C327.00,380.20 327.00,382.95 327.00,385.78 C327.00,457.87 327.34,493.77 328.04,495.07 C330.13,498.99 333.20,497.20 346.50,484.32 C361.34,469.94 373.61,459.84 390.05,448.49 C396.35,444.14 405.73,437.42 410.89,433.54 C416.06,429.67 423.28,424.25 426.95,421.50 C430.62,418.75 436.80,413.80 440.69,410.50 C444.57,407.20 451.45,401.58 455.97,398.00 C470.97,386.12 472.42,384.86 485.04,372.64 C516.92,341.79 536.42,317.11 549.52,291.05 C562.46,265.32 562.12,257.75 547.69,250.62 C537.40,245.54 534.72,242.48 534.26,235.25 C533.56,224.40 538.66,219.04 551.50,217.13 C560.90,215.73 614.90,215.66 624.42,217.04 C637.31,218.90 643.29,224.09 643.29,233.41 C643.29,240.01 640.43,245.07 635.00,248.08 C633.08,249.15 630.83,250.42 630.00,250.91 C629.17,251.40 625.48,253.22 621.79,254.95 C610.26,260.34 604.97,268.11 591.82,299.00 C586.29,311.99 578.46,327.70 575.66,331.42 C574.39,333.12 573.10,335.19 572.79,336.03 C571.14,340.53 553.31,363.41 540.47,377.50 C524.84,394.65 492.99,425.66 488.09,428.50 C487.14,429.05 484.82,430.93 482.93,432.69 C478.13,437.14 461.54,450.69 446.66,462.31 C434.54,471.78 428.00,478.00 428.00,480.06 C428.00,481.68 431.91,482.82 443.37,484.54 C461.40,487.23 480.00,494.11 493.65,503.14 C512.54,515.62 526.56,529.01 545.86,553.00 C557.04,566.90 572.55,593.07 584.37,618.00 C595.63,641.76 602.87,654.62 613.74,670.19 C630.97,694.85 639.07,702.86 653.04,709.04 C659.71,712.00 661.41,712.34 669.06,712.23 C678.10,712.11 686.02,709.88 693.00,705.49 C697.89,702.42 708.14,691.22 711.41,685.39 C715.72,677.70 720.52,664.40 722.91,653.50 C727.81,631.20 728.04,626.33 728.04,547.46 C728.04,506.74 727.82,472.09 727.56,470.46 C725.58,458.09 724.60,453.23 723.75,451.50 C721.61,447.14 714.23,440.72 708.23,437.97 C699.57,434.01 696.28,431.47 693.98,426.96 C689.78,418.73 692.61,409.87 700.70,405.92 C705.33,403.66 706.77,403.54 740.50,402.66 C759.93,402.15 768.66,401.88 777.38,401.86 C785.72,401.85 794.05,402.08 811.71,402.55 C814.41,402.62 817.33,402.70 820.50,402.79 C851.10,403.60 857.17,404.01 861.00,405.52 C867.46,408.07 870.67,411.44 872.02,417.07 C874.49,427.36 870.66,432.64 855.41,440.00 C846.05,444.51 844.67,445.54 841.54,450.26 C837.87,455.80 835.72,462.75 833.88,475.02 C833.18,479.71 832.49,512.52 832.04,563.00 C831.35,639.09 831.19,644.32 829.08,658.50 C825.41,683.11 817.21,704.80 804.33,724.00 C796.19,736.14 793.93,738.91 783.71,749.28 C759.53,773.80 734.45,787.24 704.95,791.49 C695.24,792.89 685.84,793.09 643.00,792.81 C592.95,792.48 592.45,792.46 587.00,790.18 C583.91,788.89 580.06,786.27 578.22,784.19 C575.11,780.70 562.00,761.47 562.00,760.41 C562.00,760.14 557.57,752.85 552.16,744.21 C546.75,735.57 539.26,723.33 535.52,717.00 C531.78,710.67 525.94,701.00 522.54,695.50 C519.14,690.00 513.72,681.00 510.48,675.50 C507.25,670.00 502.68,662.35 500.32,658.50 C490.31,642.15 478.25,621.50 473.38,612.36 C471.37,608.59 468.52,603.25 467.04,600.50 C465.57,597.75 462.60,592.76 460.43,589.41 C458.27,586.05 455.38,581.42 454.00,579.10 C449.67,571.80 437.77,556.75 431.16,550.22 C418.16,537.38 409.15,533.00 395.69,533.00 C388.36,533.00 386.67,533.37 380.47,536.39 C373.55,539.75 365.63,546.91 359.88,555.00 C354.71,562.27 346.16,580.98 342.28,593.50 C336.11,613.45 335.30,616.60 333.04,629.50 C331.88,636.10 330.44,643.97 329.83,647.00 C328.10,655.60 327.54,696.18 329.03,704.50 C334.65,735.93 342.46,748.19 363.65,758.83 C371.27,762.65 374.24,764.73 376.30,767.71 C381.88,775.77 378.41,786.43 368.85,790.60 ZM 324.24 529.00 C326.93,523.68 327.36,522.34 325.71,524.38 C323.94,526.57 322.87,527.09 321.23,526.57 C319.26,525.95 319.04,525.09 318.74,516.69 C318.71,515.73 318.67,515.08 318.64,514.74 C317.91,450.65 317.90,285.69 318.97,276.27 C321.60,253.04 330.54,244.36 354.00,242.26 L 362.50 241.50 L 362.79 234.28 C363.07,227.47 362.96,227.03 360.79,226.50 C359.53,226.20 321.38,226.07 276.00,226.22 L 193.50 226.50 L 193.21 233.72 C193.19,234.20 193.17,234.65 193.15,235.08 C193.02,237.90 192.94,239.47 193.68,240.42 C194.72,241.77 197.36,241.87 203.73,242.49 C214.72,243.56 219.96,245.68 225.64,251.36 C231.55,257.26 233.42,262.20 234.97,275.94 C235.56,281.12 236.05,371.38 236.22,504.50 L 236.50 724.50 L 234.17 732.00 C230.92,742.47 226.09,750.68 219.57,756.84 C212.82,763.23 205.69,766.64 194.75,768.72 C190.21,769.58 185.94,770.43 185.25,770.61 C183.92,770.96 183.42,782.08 184.67,783.34 C185.04,783.71 227.45,783.90 278.92,783.76 L 372.50 783.50 L 372.50 770.70 L 365.35 769.02 C355.31,766.66 347.67,762.49 340.93,755.69 C331.71,746.38 325.56,733.00 321.31,713.00 C319.84,706.09 319.51,699.93 319.54,680.00 C319.57,657.95 319.85,653.90 322.32,639.50 C332.88,577.90 351.71,539.63 377.53,527.30 C385.35,523.57 385.72,523.50 397.00,523.53 C406.54,523.55 409.45,523.93 414.11,525.79 C435.14,534.21 453.26,555.67 480.54,604.50 C486.99,616.05 495.64,631.12 499.76,638.00 C503.88,644.88 512.07,658.60 517.97,668.50 C533.48,694.56 574.75,762.20 587.06,781.75 L 588.48 784.00 L 644.65 784.00 C703.31,784.00 708.10,783.71 721.48,779.38 C769.48,763.85 810.83,715.68 819.43,665.24 C823.08,643.84 823.39,636.09 823.53,562.50 C823.67,489.37 824.25,474.39 827.47,460.50 C831.79,441.83 841.19,432.87 859.93,429.58 C865.19,428.66 867.00,426.45 867.00,420.97 C867.00,418.22 866.43,415.78 865.65,415.12 C864.71,414.35 850.31,413.84 818.90,413.50 C793.93,413.22 757.44,412.77 737.82,412.50 C736.42,412.48 735.07,412.46 733.77,412.44 C707.68,412.08 701.14,411.99 699.52,414.76 C698.98,415.69 698.99,416.94 699.00,418.61 C699.00,418.86 699.00,419.11 699.00,419.38 C699.00,425.46 700.49,426.87 708.72,428.58 C717.94,430.49 722.06,432.24 726.52,436.15 C730.80,439.91 733.84,445.48 735.71,453.00 C739.39,467.74 740.15,617.23 736.65,638.50 C729.55,681.73 716.32,706.20 694.00,717.36 C684.95,721.89 677.75,723.32 666.40,722.82 C657.97,722.45 656.44,722.05 648.59,718.16 C634.77,711.31 618.38,694.50 604.05,672.50 C594.71,658.16 584.07,638.59 574.55,618.27 C564.83,597.50 558.33,586.15 546.84,569.83 C519.86,531.54 494.29,509.62 464.35,499.10 C444.89,492.27 417.47,492.16 394.32,498.55 C396.35,497.89 397.76,497.41 397.89,497.32 C398.11,497.17 397.21,496.17 395.89,495.10 L 393.50 493.16 L 396.50 489.93 C398.15,488.15 395.35,489.94 390.27,493.91 C389.63,494.41 389.01,494.90 388.43,495.36 C393.41,491.28 398.92,487.00 399.44,487.00 C400.29,487.00 444.86,452.95 461.00,439.96 C516.24,395.52 552.77,356.02 573.11,318.73 C575.88,313.65 581.52,301.40 585.65,291.50 C594.92,269.23 598.84,262.09 605.83,254.75 C612.32,247.94 619.31,244.35 629.32,242.69 L 636.50 241.50 L 636.80 234.59 C637.01,229.74 636.71,227.43 635.80,226.85 C635.08,226.40 614.17,226.02 589.32,226.02 C586.19,226.01 583.25,226.01 580.50,226.01 C550.60,225.98 543.02,225.97 541.51,228.99 C541.00,230.01 541.19,231.38 541.44,233.22 C541.51,233.72 541.59,234.25 541.65,234.82 C542.38,241.14 543.07,241.96 547.70,241.98 C554.83,242.02 561.06,244.13 564.95,247.85 C573.96,256.43 572.38,269.31 559.02,296.00 C549.93,314.16 541.04,326.91 522.42,348.50 C499.25,375.35 479.83,392.92 430.00,432.08 C410.25,447.60 408.76,448.70 399.50,454.59 C378.02,468.25 347.80,495.47 334.48,513.16 C328.19,521.51 322.63,531.31 319.33,539.87 C319.30,539.95 319.27,539.90 319.24,539.73 C319.27,539.66 319.30,539.58 319.33,539.50 C319.94,537.85 322.15,533.12 324.24,529.00 ZM 784.93 393.92 C780.37,396.48 779.27,396.50 775.58,394.06 C771.44,391.33 766.35,384.61 762.42,376.69 C758.17,368.10 746.56,352.64 740.76,347.85 C738.34,345.84 732.11,341.49 726.92,338.18 C713.80,329.80 708.00,324.49 708.00,320.83 C708.00,314.16 713.80,307.09 723.00,302.51 C728.59,299.73 740.85,290.20 746.68,284.11 C753.01,277.49 759.39,268.21 764.29,258.50 C770.73,245.73 777.57,241.70 785.73,245.86 C790.04,248.06 791.79,250.42 799.05,263.87 C807.85,280.15 820.73,293.03 838.16,302.96 C847.66,308.37 851.93,313.36 851.93,319.00 C851.93,320.92 851.38,323.44 850.71,324.60 C849.01,327.54 843.39,332.18 837.50,335.52 C819.84,345.52 806.31,359.55 797.51,377.00 C792.76,386.40 788.79,391.75 784.93,393.92 ZM 777.96 387.42 C779.04,389.94 780.42,392.00 781.02,392.00 C781.61,392.00 782.67,390.54 783.38,388.75 C784.08,386.96 785.96,382.12 787.57,378.00 C796.99,353.86 820.47,331.18 844.50,323.01 C849.71,321.24 851.57,318.49 848.32,317.36 C828.31,310.42 814.65,300.92 801.88,285.06 C794.60,276.03 789.61,267.03 785.18,255.00 C783.51,250.46 781.86,247.50 781.00,247.50 C780.14,247.50 778.51,250.37 776.92,254.69 C766.21,283.71 744.30,306.80 719.15,315.59 C709.98,318.79 710.30,320.31 721.00,324.36 C736.23,330.12 750.48,341.16 761.29,355.56 C767.10,363.29 776.00,379.19 776.00,381.82 C776.00,382.38 776.88,384.90 777.96,387.42 Z" fill="rgb(254,236,212)"/>
<path d="M 390.00 499.92 C391.58,499.43 393.07,498.96 394.32,498.55 C417.47,492.16 444.89,492.27 464.35,499.10 C494.29,509.62 519.86,531.54 546.84,569.83 C558.33,586.15 564.83,597.50 574.55,618.27 C584.07,638.59 594.71,658.16 604.05,672.50 C618.38,694.50 634.77,711.31 648.59,718.16 C656.44,722.05 657.97,722.45 666.40,722.82 C677.75,723.32 684.95,721.89 694.00,717.36 C716.32,706.20 729.55,681.73 736.65,638.50 C740.15,617.23 739.39,467.74 735.71,453.00 C733.84,445.48 730.80,439.91 726.52,436.15 C722.06,432.24 717.94,430.49 708.72,428.58 C700.49,426.87 699.00,425.46 699.00,419.38 C699.00,419.11 699.00,418.86 699.00,418.61 C698.99,416.94 698.98,415.69 699.52,414.76 C701.14,411.99 707.68,412.08 733.77,412.44 C735.07,412.46 736.42,412.48 737.82,412.50 C757.44,412.77 793.93,413.22 818.90,413.50 C850.31,413.84 864.71,414.35 865.65,415.12 C866.43,415.78 867.00,418.22 867.00,420.97 C867.00,426.45 865.19,428.66 859.93,429.58 C841.19,432.87 831.79,441.83 827.47,460.50 C824.25,474.39 823.67,489.37 823.53,562.50 C823.39,636.09 823.08,643.84 819.43,665.24 C810.83,715.68 769.48,763.85 721.48,779.38 C708.10,783.71 703.31,784.00 644.65,784.00 L 588.48 784.00 L 587.06 781.75 C574.75,762.20 533.48,694.56 517.97,668.50 C512.07,658.60 503.88,644.88 499.76,638.00 C495.64,631.12 486.99,616.05 480.54,604.50 C453.26,555.67 435.14,534.21 414.11,525.79 C409.45,523.93 406.54,523.55 397.00,523.53 C385.72,523.50 385.35,523.57 377.53,527.30 C351.71,539.63 332.88,577.90 322.32,639.50 C319.85,653.90 319.57,657.95 319.54,680.00 C319.51,699.93 319.84,706.09 321.31,713.00 C325.56,733.00 331.71,746.38 340.93,755.69 C347.67,762.49 355.31,766.66 365.35,769.02 L 372.50 770.70 L 372.50 783.50 L 278.92 783.76 C227.45,783.90 185.04,783.71 184.67,783.34 C183.42,782.08 183.92,770.96 185.25,770.61 C185.94,770.43 190.21,769.58 194.75,768.72 C205.69,766.64 212.82,763.23 219.57,756.84 C226.09,750.68 230.92,742.47 234.17,732.00 L 236.50 724.50 L 236.22 504.50 C236.05,371.38 235.56,281.12 234.97,275.94 C233.42,262.20 231.55,257.26 225.64,251.36 C219.96,245.68 214.72,243.56 203.73,242.49 C197.36,241.87 194.72,241.77 193.68,240.42 C192.94,239.47 193.02,237.90 193.15,235.08 C193.17,234.65 193.19,234.20 193.21,233.72 L 193.50 226.50 L 276.00 226.22 C321.38,226.07 359.53,226.20 360.79,226.50 C362.96,227.03 363.07,227.47 362.79,234.28 L 362.50 241.50 L 354.00 242.26 C330.54,244.36 321.60,253.04 318.97,276.27 C317.90,285.69 317.91,450.65 318.64,514.74 C318.49,513.28 318.36,517.21 318.31,525.00 C318.24,538.43 318.43,541.66 319.24,539.73 C319.27,539.90 319.30,539.95 319.33,539.87 C322.63,531.31 328.19,521.51 334.48,513.16 C347.80,495.47 378.02,468.25 399.50,454.59 C408.76,448.70 410.25,447.60 430.00,432.08 C479.83,392.92 499.25,375.35 522.42,348.50 C541.04,326.91 549.93,314.16 559.02,296.00 C572.38,269.31 573.96,256.43 564.95,247.85 C561.06,244.13 554.83,242.02 547.70,241.98 C543.07,241.96 542.38,241.14 541.65,234.82 C541.59,234.25 541.51,233.72 541.44,233.22 C541.19,231.38 541.00,230.01 541.51,228.99 C543.02,225.97 550.60,225.98 580.50,226.01 C583.25,226.01 586.19,226.01 589.32,226.02 C614.17,226.02 635.08,226.40 635.80,226.85 C636.71,227.43 637.01,229.74 636.80,234.59 L 636.50 241.50 L 629.32 242.69 C619.31,244.35 612.32,247.94 605.83,254.75 C598.84,262.09 594.92,269.23 585.65,291.50 C581.52,301.40 575.88,313.65 573.11,318.73 C552.77,356.02 516.24,395.52 461.00,439.96 C444.86,452.95 400.29,487.00 399.44,487.00 C398.92,487.00 393.41,491.28 388.43,495.36 C380.82,501.37 378.42,503.82 381.09,502.80 C381.86,502.51 385.88,501.21 390.00,499.92 ZM 777.96 387.42 C776.88,384.90 776.00,382.38 776.00,381.82 C776.00,379.19 767.10,363.29 761.29,355.56 C750.48,341.16 736.23,330.12 721.00,324.36 C710.30,320.31 709.98,318.79 719.15,315.59 C744.30,306.80 766.21,283.71 776.92,254.69 C778.51,250.37 780.14,247.50 781.00,247.50 C781.86,247.50 783.51,250.46 785.18,255.00 C789.61,267.03 794.60,276.03 801.88,285.06 C814.65,300.92 828.31,310.42 848.32,317.36 C851.57,318.49 849.71,321.24 844.50,323.01 C820.47,331.18 796.99,353.86 787.57,378.00 C785.96,382.12 784.08,386.96 783.38,388.75 C782.67,390.54 781.61,392.00 781.02,392.00 C780.42,392.00 779.04,389.94 777.96,387.42 Z" fill="rgb(254,100,1)"/>
<path d="M 0.00 512.00 L 0.00 0.00 L 512.00 0.00 L 1024.00 0.00 L 1024.00 512.00 L 1024.00 1024.00 L 512.00 1024.00 L 0.00 1024.00 L 0.00 512.00 ZM 368.85 790.60 C378.41,786.43 381.88,775.77 376.30,767.71 C374.24,764.73 371.27,762.65 363.65,758.83 C342.46,748.19 334.65,735.93 329.03,704.50 C327.54,696.18 328.10,655.60 329.83,647.00 C330.44,643.97 331.88,636.10 333.04,629.50 C335.30,616.60 336.11,613.45 342.28,593.50 C346.16,580.98 354.71,562.27 359.88,555.00 C365.63,546.91 373.55,539.75 380.47,536.39 C386.67,533.37 388.36,533.00 395.69,533.00 C409.15,533.00 418.16,537.38 431.16,550.22 C437.77,556.75 449.67,571.80 454.00,579.10 C455.38,581.42 458.27,586.05 460.43,589.41 C462.60,592.76 465.57,597.75 467.04,600.50 C468.52,603.25 471.37,608.59 473.38,612.36 C478.25,621.50 490.31,642.15 500.32,658.50 C502.68,662.35 507.25,670.00 510.48,675.50 C513.72,681.00 519.14,690.00 522.54,695.50 C525.94,701.00 531.78,710.67 535.52,717.00 C539.26,723.33 546.75,735.57 552.16,744.21 C557.57,752.85 562.00,760.14 562.00,760.41 C562.00,761.47 575.11,780.70 578.22,784.19 C580.06,786.27 583.91,788.89 587.00,790.18 C592.45,792.46 592.95,792.48 643.00,792.81 C685.84,793.09 695.24,792.89 704.95,791.49 C734.45,787.24 759.53,773.80 783.71,749.28 C793.93,738.91 796.19,736.14 804.33,724.00 C817.21,704.80 825.41,683.11 829.08,658.50 C831.19,644.32 831.35,639.09 832.04,563.00 C832.49,512.52 833.18,479.71 833.88,475.02 C835.72,462.75 837.87,455.80 841.54,450.26 C844.67,445.54 846.05,444.51 855.41,440.00 C870.66,432.64 874.49,427.36 872.02,417.07 C870.67,411.44 867.46,408.07 861.00,405.52 C857.17,404.01 851.10,403.60 820.50,402.79 C774.90,401.57 781.32,401.58 740.50,402.66 C706.77,403.54 705.33,403.66 700.70,405.92 C692.61,409.87 689.78,418.73 693.98,426.96 C696.28,431.47 699.57,434.01 708.23,437.97 C714.23,440.72 721.61,447.14 723.75,451.50 C724.60,453.23 725.58,458.09 727.56,470.46 C727.82,472.09 728.04,506.74 728.04,547.46 C728.04,626.33 727.81,631.20 722.91,653.50 C720.52,664.40 715.72,677.70 711.41,685.39 C708.14,691.22 697.89,702.42 693.00,705.49 C686.02,709.88 678.10,712.11 669.06,712.23 C661.41,712.34 659.71,712.00 653.04,709.04 C639.07,702.86 630.97,694.85 613.74,670.19 C602.87,654.62 595.63,641.76 584.37,618.00 C572.55,593.07 557.04,566.90 545.86,553.00 C526.56,529.01 512.54,515.62 493.65,503.14 C480.00,494.11 461.40,487.23 443.37,484.54 C431.91,482.82 428.00,481.68 428.00,480.06 C428.00,478.00 434.54,471.78 446.66,462.31 C461.54,450.69 478.13,437.14 482.93,432.69 C484.82,430.93 487.14,429.05 488.09,428.50 C492.99,425.66 524.84,394.65 540.47,377.50 C553.31,363.41 571.14,340.53 572.79,336.03 C573.10,335.19 574.39,333.12 575.66,331.42 C578.46,327.70 586.29,311.99 591.82,299.00 C604.97,268.11 610.26,260.34 621.79,254.95 C625.48,253.22 629.17,251.40 630.00,250.91 C630.83,250.42 633.08,249.15 635.00,248.08 C640.43,245.07 643.29,240.01 643.29,233.41 C643.29,224.09 637.31,218.90 624.42,217.04 C614.90,215.66 560.90,215.73 551.50,217.13 C538.66,219.04 533.56,224.40 534.26,235.25 C534.72,242.48 537.40,245.54 547.69,250.62 C562.12,257.75 562.46,265.32 549.52,291.05 C536.42,317.11 516.92,341.79 485.04,372.64 C472.42,384.86 470.97,386.12 455.97,398.00 C451.45,401.58 444.57,407.20 440.69,410.50 C436.80,413.80 430.62,418.75 426.95,421.50 C423.28,424.25 416.06,429.67 410.89,433.54 C405.73,437.42 396.35,444.14 390.05,448.49 C373.61,459.84 361.34,469.94 346.50,484.32 C333.20,497.20 330.13,498.99 328.04,495.07 C327.34,493.77 327.00,457.87 327.00,385.78 C327.00,268.91 326.86,272.04 332.60,262.25 C335.43,257.40 338.95,255.33 351.44,251.13 C362.21,247.51 364.72,245.83 367.06,240.67 C369.57,235.15 369.46,230.38 366.72,225.50 C361.56,216.29 356.04,215.77 268.11,216.18 L 200.50 216.50 L 194.91 219.12 C187.94,222.39 184.44,227.41 184.69,233.78 C185.00,242.00 190.42,247.63 200.94,250.65 C213.12,254.16 219.63,259.08 222.60,267.01 C225.20,273.98 225.75,315.56 226.06,528.50 C226.32,704.67 226.21,719.01 224.63,725.50 C222.40,734.68 218.87,741.40 213.15,747.33 C207.95,752.73 205.13,754.39 193.33,758.93 C183.31,762.80 180.84,764.67 178.09,770.52 C176.24,774.47 176.10,775.64 177.05,779.18 C177.65,781.43 178.68,784.14 179.32,785.22 C180.82,787.70 186.97,790.89 192.34,791.97 C194.63,792.44 234.30,792.74 280.50,792.66 C360.63,792.51 364.70,792.41 368.85,790.60 ZM 784.93 393.92 C788.79,391.75 792.76,386.40 797.51,377.00 C806.31,359.55 819.84,345.52 837.50,335.52 C843.39,332.18 849.01,327.54 850.71,324.60 C851.38,323.44 851.93,320.92 851.93,319.00 C851.93,313.36 847.66,308.37 838.16,302.96 C820.73,293.03 807.85,280.15 799.05,263.87 C791.79,250.42 790.04,248.06 785.73,245.86 C777.57,241.70 770.73,245.73 764.29,258.50 C759.39,268.21 753.01,277.49 746.68,284.11 C740.85,290.20 728.59,299.73 723.00,302.51 C713.80,307.09 708.00,314.16 708.00,320.83 C708.00,324.49 713.80,329.80 726.92,338.18 C732.11,341.49 738.34,345.84 740.76,347.85 C746.56,352.64 758.17,368.10 762.42,376.69 C766.35,384.61 771.44,391.33 775.58,394.06 C779.27,396.50 780.37,396.48 784.93,393.92 Z" fill="rgb(254,254,254)"/>
</g>
</svg>